<svg width="156" height="47" viewBox="0 0 156 47" fill="none" xmlns="http://www.w3.org/2000/svg">
<path d="M52.7858 37.1889C52.1887 37.1889 51.6091 37.3196 51.0468 37.5813L50.6719 36.8378C51.2689 36.5485 51.977 36.404 52.7961 36.404C53.5494 36.404 54.1968 36.5555 54.7382 36.8584C55.2833 37.1613 55.6963 37.5933 55.9775 38.1545C56.2586 38.7155 56.3992 39.3765 56.3992 40.1373C56.3992 41.4316 56.0833 42.4265 55.4516 43.1218C54.8199 43.8172 53.9105 44.1649 52.7233 44.1649C51.9354 44.1649 51.2706 44.0668 50.7291 43.8706V43.1011C51.0172 43.1735 51.3106 43.2389 51.6091 43.2974C51.9075 43.3559 52.2286 43.3852 52.5723 43.3852C53.5129 43.3852 54.2228 43.1374 54.7018 42.6416C55.1809 42.1424 55.4342 41.4247 55.462 40.4884H51.7184V39.7035H55.4516C55.3753 38.9152 55.101 38.299 54.6289 37.8549C54.1603 37.4109 53.5459 37.1889 52.7858 37.1889ZM62.137 44.0616H61.2623V39.1355H59.5493C59.4556 40.361 59.3253 41.3335 59.1588 42.0529C58.9921 42.7724 58.7752 43.2991 58.5079 43.633C58.2441 43.9669 57.9074 44.1339 57.4979 44.1339C57.3104 44.1339 57.1611 44.1132 57.05 44.0719V43.4368C57.1264 43.4574 57.2132 43.4678 57.3104 43.4678C57.7095 43.4678 58.0272 43.0495 58.2632 42.213C58.4992 41.3765 58.678 40.1062 58.7995 38.4023H62.137V44.0616ZM66.3856 44.1649C65.5421 44.1649 64.8757 43.9101 64.3862 43.4007C63.9003 42.8912 63.6573 42.1837 63.6573 41.2784C63.6573 40.3662 63.8829 39.6415 64.3342 39.1046C64.7889 38.5676 65.3981 38.299 66.1618 38.299C66.8768 38.299 67.4426 38.5331 67.8591 39.0013C68.2757 39.466 68.4839 40.0805 68.4839 40.8446V41.3869H64.5529C64.5702 42.0513 64.7386 42.5555 65.0579 42.8998C65.3807 43.244 65.8337 43.4161 66.4169 43.4161C67.0312 43.4161 67.6388 43.2887 68.2393 43.0341V43.7983C67.9338 43.929 67.6439 44.022 67.3697 44.0771C67.099 44.1356 66.7709 44.1649 66.3856 44.1649ZM66.1513 39.0168C65.6931 39.0168 65.3269 39.1648 65.0527 39.4609C64.782 39.7569 64.6223 40.1666 64.5737 40.6897H67.5571C67.5571 40.1493 67.4357 39.7362 67.1927 39.4505C66.9497 39.1613 66.6025 39.0168 66.1513 39.0168ZM73.2897 38.4023H74.2374L71.7745 41.1339L74.4403 44.0616H73.4303L70.827 41.1958V44.0616H69.9627V38.4023H70.827V41.1545L73.2897 38.4023ZM79.3503 39.1355H77.4967V44.0616H76.6323V39.1355H74.7996V38.4023H79.3503V39.1355ZM83.1356 44.1649C82.7641 44.1649 82.424 44.0977 82.1151 43.9635C81.8096 43.8258 81.5527 43.6158 81.3444 43.3335H81.2819C81.3236 43.664 81.3444 43.9773 81.3444 44.2733V46.602H80.4801V38.4023H81.183L81.3028 39.1768H81.3444C81.5666 38.867 81.8252 38.6433 82.1202 38.5056C82.4153 38.3679 82.7537 38.299 83.1356 38.299C83.8923 38.299 84.4754 38.5555 84.8849 39.0684C85.298 39.5813 85.5046 40.3008 85.5046 41.2268C85.5046 42.1562 85.2946 42.8791 84.8746 43.3955C84.458 43.9084 83.8783 44.1649 83.1356 44.1649ZM83.0106 39.0271C82.4274 39.0271 82.0057 39.1872 81.7454 39.5073C81.485 39.8275 81.3513 40.3369 81.3444 41.0358V41.2268C81.3444 42.022 81.4781 42.5917 81.7454 42.9359C82.0127 43.2767 82.4413 43.4472 83.0314 43.4472C83.5243 43.4472 83.9095 43.2492 84.1873 42.8533C84.4685 42.4574 84.609 41.9118 84.609 41.2164C84.609 40.5107 84.4685 39.9703 84.1873 39.5951C83.9095 39.2165 83.5174 39.0271 83.0106 39.0271ZM91.9452 41.2268C91.9452 42.1494 91.7109 42.8705 91.2423 43.3904C90.7737 43.9067 90.1263 44.1649 89.3002 44.1649C88.79 44.1649 88.337 44.0461 87.9413 43.8086C87.5456 43.571 87.2402 43.2303 87.0249 42.7862C86.8098 42.3421 86.7022 41.8223 86.7022 41.2268C86.7022 40.3042 86.9347 39.5865 87.3998 39.0736C87.8649 38.5572 88.5106 38.299 89.3367 38.299C90.135 38.299 90.7685 38.5624 91.2371 39.0891C91.7093 39.6158 91.9452 40.3283 91.9452 41.2268ZM87.5977 41.2268C87.5977 41.9497 87.7435 42.5005 88.0351 42.8791C88.3266 43.2578 88.7553 43.4472 89.3211 43.4472C89.8869 43.4472 90.3155 43.2596 90.6071 42.8843C90.9022 42.5056 91.0497 41.9532 91.0497 41.2268C91.0497 40.5073 90.9022 39.9617 90.6071 39.5899C90.3155 39.2147 89.8834 39.0271 89.3107 39.0271C88.7449 39.0271 88.3179 39.2113 88.0298 39.5796C87.7417 39.9479 87.5977 40.497 87.5977 41.2268ZM101.192 46.0186H100.354V44.0616H96.3658V46.0186H95.5326V43.3232H95.9804C96.4455 42.6967 96.8101 41.9618 97.0739 41.1183C97.3376 40.275 97.4747 39.3696 97.4852 38.4023H100.375V43.3232H101.192V46.0186ZM99.5416 43.3232V39.0787H98.261C98.2158 39.8429 98.0665 40.6175 97.8132 41.4024C97.5633 42.1837 97.2509 42.824 96.876 43.3232H99.5416ZM106.591 44.0616H105.716V39.1355H104.003C103.911 40.361 103.78 41.3335 103.613 42.0529C103.447 42.7724 103.23 43.2991 102.963 43.633C102.699 43.9669 102.362 44.1339 101.953 44.1339C101.765 44.1339 101.616 44.1132 101.504 44.0719V43.4368C101.581 43.4574 101.667 43.4678 101.765 43.4678C102.164 43.4678 102.482 43.0495 102.718 42.213C102.954 41.3765 103.133 40.1062 103.254 38.4023H106.591V44.0616ZM108.716 44.0616H107.706L109.346 41.6709C108.906 41.5745 108.567 41.3886 108.331 41.1132C108.098 40.8344 107.981 40.485 107.981 40.065C107.981 39.5486 108.157 39.1425 108.508 38.8464C108.858 38.5504 109.348 38.4023 109.976 38.4023H112.517V44.0616H111.652V41.7999H110.21L108.716 44.0616ZM108.826 40.0753C108.826 40.7294 109.304 41.0564 110.262 41.0564H111.652V39.1459H110.085C109.245 39.1459 108.826 39.4557 108.826 40.0753ZM122.082 46.0186H121.243V44.0616H117.255V46.0186H116.422V43.3232H116.869C117.335 42.6967 117.699 41.9618 117.963 41.1183C118.227 40.275 118.364 39.3696 118.374 38.4023H121.264V43.3232H122.082V46.0186ZM120.431 43.3232V39.0787H119.15C119.105 39.8429 118.956 40.6175 118.702 41.4024C118.452 42.1837 118.14 42.824 117.765 43.3232H120.431ZM125.882 44.1649C125.511 44.1649 125.171 44.0977 124.862 43.9635C124.557 43.8258 124.299 43.6158 124.091 43.3335H124.029C124.07 43.664 124.091 43.9773 124.091 44.2733V46.602H123.227V38.4023H123.93L124.049 39.1768H124.091C124.313 38.867 124.572 38.6433 124.867 38.5056C125.162 38.3679 125.501 38.299 125.882 38.299C126.639 38.299 127.223 38.5555 127.632 39.0684C128.045 39.5813 128.252 40.3008 128.252 41.2268C128.252 42.1562 128.041 42.8791 127.622 43.3955C127.205 43.9084 126.625 44.1649 125.882 44.1649ZM125.758 39.0271C125.174 39.0271 124.752 39.1872 124.492 39.5073C124.232 39.8275 124.098 40.3369 124.091 41.0358V41.2268C124.091 42.022 124.225 42.5917 124.492 42.9359C124.759 43.2767 125.188 43.4472 125.778 43.4472C126.271 43.4472 126.656 43.2492 126.934 42.8533C127.215 42.4574 127.356 41.9118 127.356 41.2164C127.356 40.5107 127.215 39.9703 126.934 39.5951C126.656 39.2165 126.264 39.0271 125.758 39.0271ZM133.276 44.0616L133.104 43.256H133.063C132.778 43.6107 132.493 43.8516 132.209 43.9789C131.927 44.1029 131.575 44.1649 131.151 44.1649C130.586 44.1649 130.141 44.0203 129.818 43.7311C129.5 43.442 129.34 43.0306 129.34 42.497C129.34 41.3542 130.261 40.7551 132.104 40.7001L133.073 40.6692V40.318C133.073 39.8739 132.976 39.5469 132.781 39.3369C132.59 39.1235 132.283 39.0168 131.859 39.0168C131.384 39.0168 130.846 39.1613 130.246 39.4505L129.98 38.7948C130.261 38.6433 130.569 38.5245 130.902 38.4384C131.238 38.3524 131.575 38.3094 131.912 38.3094C132.592 38.3094 133.095 38.4591 133.421 38.7586C133.751 39.0581 133.916 39.5383 133.916 40.1993V44.0616H133.276ZM131.323 43.4574C131.861 43.4574 132.283 43.3112 132.589 43.0186C132.898 42.7259 133.052 42.3163 133.052 41.7896V41.2784L132.188 41.3145C131.501 41.3386 131.004 41.4454 130.698 41.6347C130.397 41.8206 130.246 42.1115 130.246 42.5074C130.246 42.8172 130.34 43.053 130.526 43.2148C130.718 43.3766 130.984 43.4574 131.323 43.4574ZM136.515 38.4023V41.991L136.478 42.9308L136.462 43.2251L139.55 38.4023H140.628V44.0616H139.82V40.602L139.836 39.9204L139.863 39.2492L136.78 44.0616H135.702V38.4023H136.515ZM138.144 37.6536C137.502 37.6536 137.033 37.5314 136.739 37.2869C136.444 37.0391 136.279 36.6329 136.244 36.0684H137.056C137.087 36.4263 137.181 36.6759 137.337 36.8171C137.497 36.9582 137.772 37.0288 138.165 37.0288C138.523 37.0288 138.787 36.953 138.956 36.8016C139.13 36.6502 139.236 36.4057 139.274 36.0684H140.092C140.05 36.6123 139.875 37.0134 139.566 37.2715C139.256 37.5262 138.783 37.6536 138.144 37.6536ZM147.089 39.8223C147.089 40.1907 146.981 40.4712 146.766 40.664C146.555 40.8533 146.256 40.9806 145.871 41.0461V41.0926C146.356 41.158 146.711 41.2991 146.933 41.516C147.159 41.7328 147.272 42.0323 147.272 42.4144C147.272 42.9411 147.075 43.3473 146.683 43.633C146.294 43.9187 145.726 44.0616 144.975 44.0616H142.46V38.4023H144.965C146.381 38.4023 147.089 38.8756 147.089 39.8223ZM146.407 42.3576C146.407 42.0513 146.289 41.8292 146.053 41.6915C145.82 41.5504 145.433 41.4798 144.892 41.4798H143.325V43.3439H144.913C145.909 43.3439 146.407 43.0151 146.407 42.3576ZM146.246 39.9049C146.246 39.6295 146.138 39.435 145.923 39.3214C145.711 39.2044 145.389 39.1459 144.954 39.1459H143.325V40.7414H144.788C145.323 40.7414 145.699 40.676 145.918 40.5452C146.136 40.4144 146.246 40.2009 146.246 39.9049ZM152.041 44.0616L151.869 43.256H151.827C151.543 43.6107 151.258 43.8516 150.973 43.9789C150.692 44.1029 150.34 44.1649 149.917 44.1649C149.351 44.1649 148.907 44.0203 148.584 43.7311C148.264 43.442 148.105 43.0306 148.105 42.497C148.105 41.3542 149.026 40.7551 150.87 40.7001L151.838 40.6692V40.318C151.838 39.8739 151.74 39.5469 151.546 39.3369C151.355 39.1235 151.048 39.0168 150.625 39.0168C150.149 39.0168 149.611 39.1613 149.01 39.4505L148.745 38.7948C149.026 38.6433 149.333 38.5245 149.667 38.4384C150.004 38.3524 150.34 38.3094 150.677 38.3094C151.357 38.3094 151.86 38.4591 152.187 38.7586C152.516 39.0581 152.681 39.5383 152.681 40.1993V44.0616H152.041ZM150.089 43.4574C150.627 43.4574 151.048 43.3112 151.353 43.0186C151.662 42.7259 151.816 42.3163 151.816 41.7896V41.2784L150.953 41.3145C150.265 41.3386 149.769 41.4454 149.464 41.6347C149.161 41.8206 149.01 42.1115 149.01 42.5074C149.01 42.8172 149.104 43.053 149.292 43.2148C149.482 43.3766 149.748 43.4574 150.089 43.4574ZM155.248 41.9807H154.701L154.436 36.5124H155.514L155.248 41.9807ZM154.342 43.5142C154.342 43.0461 154.55 42.812 154.967 42.812C155.168 42.812 155.323 42.8723 155.43 42.9927C155.542 43.1132 155.597 43.2871 155.597 43.5142C155.597 43.7345 155.542 43.9067 155.43 44.0306C155.32 44.1511 155.165 44.2113 154.967 44.2113C154.786 44.2113 154.637 44.1579 154.519 44.0513C154.401 43.9412 154.342 43.7621 154.342 43.5142Z" fill="white"/>
<path d="M81.4146 27.0993V31.5653H50.875V19.1211H76.9102V23.5792H55.3783V27.0993H81.4146Z" fill="white"/>
<path d="M81.4095 11.1445H50.876V15.6252H81.4095V11.1445Z" fill="white"/>
<path d="M88.3987 27.1089V11.1406H83.9014V31.569H108.435V27.1089H88.3987Z" fill="white"/>
<path d="M115.419 11.1777H110.926V31.5689H115.419V11.1777Z" fill="white"/>
<path d="M147.46 11.1152C149.652 11.1238 151.75 11.993 153.297 13.5326C154.845 15.0723 155.713 17.157 155.714 19.3304V23.345C155.712 25.5153 154.842 27.5962 153.295 29.1309C151.746 30.6656 149.648 31.5287 147.46 31.5308H146.374L135.652 21.3397H142.143L148.105 27.0189C148.975 26.8642 149.763 26.4124 150.332 25.7418C150.9 25.0713 151.215 24.2243 151.22 23.348V19.3334C151.221 18.8434 151.124 18.358 150.936 17.9052C150.747 17.4524 150.471 17.041 150.121 16.6944C149.772 16.348 149.357 16.0734 148.9 15.8864C148.444 15.6994 147.954 15.6036 147.46 15.6047H126.162C125.165 15.6065 124.21 15.9999 123.505 16.6987C122.8 17.3976 122.404 18.3449 122.402 19.3334V23.348C122.404 24.3363 122.8 25.2837 123.505 25.9825C124.21 26.6813 125.165 27.0748 126.162 27.0765H135.18L139.85 31.5338H126.162C123.973 31.5319 121.875 30.6689 120.328 29.1342C118.78 27.5994 117.91 25.5184 117.908 23.348V19.3334C117.908 17.1597 118.777 15.0749 120.324 13.5352C121.871 11.9955 123.97 11.1264 126.162 11.1182L147.46 11.1152Z" fill="white"/>
<path d="M43.1047 21.3106C43.1118 26.265 41.3764 31.0667 38.1976 34.8887L32.8659 29.6012C34.3285 27.638 35.246 25.3286 35.527 22.9037C35.808 20.4787 35.4427 18.0231 34.4673 15.782C33.492 13.541 31.941 11.5928 29.969 10.1322C27.9971 8.67164 25.6732 7.74963 23.2295 7.45831V0C28.6388 0.419262 33.6898 2.84627 37.374 6.79653C41.0581 10.7468 43.1046 15.9297 43.1047 21.3106Z" fill="white"/>
<path d="M41.3117 42.6836H23.2295V35.1626C25.9293 34.8442 28.4772 33.7534 30.5625 32.0234L41.3117 42.6836Z" fill="white"/>
<path d="M19.8788 0V7.45831C17.7223 7.71562 15.6553 8.46461 13.8396 9.64662C12.0238 10.8286 10.5087 12.4115 9.41295 14.2714H1.19629C2.57689 10.3505 5.0787 6.91312 8.3963 4.37884C11.7139 1.84455 15.7038 0.323025 19.8788 0Z" fill="white"/>
<path d="M19.8749 25.0236H7.99029C8.73451 27.6918 10.2617 30.0803 12.3778 31.8856C14.494 33.6909 17.1035 34.8318 19.8749 35.1629V42.6212C16.8791 42.3873 13.9657 41.5352 11.3215 40.1194C8.67712 38.7036 6.36035 36.7554 4.51965 34.3998C2.67893 32.0441 1.35493 29.333 0.632503 26.4402C-0.0899187 23.5475 -0.194806 20.5369 0.324568 17.6016H19.8739L19.8749 25.0236Z" fill="white"/>
</svg>
