<svg width="67" height="67" viewBox="0 0 67 67" fill="none" xmlns="http://www.w3.org/2000/svg">
<mask id="path-1-outside-1_172_87" maskUnits="userSpaceOnUse" x="0" y="0" width="67" height="67" fill="black">
<rect fill="white" width="67" height="67"/>
<path fill-rule="evenodd" clip-rule="evenodd" d="M32.992 1.25395C32.7468 1.49914 32.738 1.67716 32.738 6.3863V11.2648L31.8808 11.3401C26.3824 11.8237 21.6139 14.0203 17.8126 17.8211C14.0111 21.6217 11.8141 26.3894 11.3305 31.8868L11.2552 32.7439H6.37576C1.66579 32.7439 1.48774 32.7527 1.2425 32.9978C0.919166 33.3211 0.919166 33.6904 1.2425 34.0136C1.48774 34.2588 1.66579 34.2676 6.37576 34.2676H11.2552L11.3305 35.1247C11.8141 40.6221 14.0111 45.3898 17.8126 49.1904C21.6139 52.9912 26.3824 55.1878 31.8808 55.6714L32.738 55.7467V60.6252C32.738 65.3343 32.7468 65.5124 32.992 65.7575C33.3153 66.0808 33.6847 66.0808 34.008 65.7575C34.2532 65.5124 34.262 65.3343 34.262 60.6252V55.7467L35.1192 55.6714C40.6123 55.1883 45.3977 52.9852 49.1903 49.1933C52.9829 45.4013 55.1864 40.6168 55.6695 35.1247L55.7448 34.2676H60.6242C65.3342 34.2676 65.5123 34.2588 65.7575 34.0136C66.0808 33.6904 66.0808 33.3211 65.7575 32.9978C65.5123 32.7527 65.3342 32.7439 60.6242 32.7439H55.7448L55.6695 31.8868C55.1859 26.3894 52.9889 21.6217 49.1874 17.8211C45.3861 14.0203 40.6176 11.8237 35.1192 11.3401L34.262 11.2648V6.3863C34.262 1.67716 34.2532 1.49914 34.008 1.25395C33.8683 1.11428 33.6397 1 33.5 1C33.3603 1 33.1317 1.11428 32.992 1.25395ZM32.738 16.5399V20.1441L32.0078 20.2288C29.8753 20.476 27.1829 21.5297 25.5601 22.7519C24.6373 23.4469 23.3993 24.6906 22.6939 25.6312C21.5167 27.2008 20.4638 29.9183 20.2207 32.0138L20.136 32.7439H16.5124H12.8887L12.9671 31.7269C13.2333 28.2763 14.6238 24.4971 16.7044 21.57C17.802 20.0258 20.0176 17.8105 21.5622 16.7131C23.8559 15.0832 27.0532 13.7179 29.6306 13.2675C31.275 12.9801 31.3382 12.972 32.0713 12.953L32.738 12.9357V16.5399ZM37.4063 13.2624C43.7031 14.4399 49.4087 18.8886 52.1655 24.7705C53.1966 26.9706 54.0737 30.3491 54.0737 32.1216V32.7439H50.4688H46.864L46.7793 32.0138C46.532 29.8817 45.4782 27.1897 44.2557 25.5672C43.5607 24.6446 42.3167 23.4069 41.3759 22.7015C39.8061 21.5246 37.0881 20.4718 34.9922 20.2288L34.262 20.1441V16.5211V12.8981L35.2791 12.9765C35.8384 13.0196 36.7957 13.1483 37.4063 13.2624ZM32.9506 27.9432C33.2102 28.23 33.724 28.2393 34.0297 27.9626C34.242 27.7705 34.262 27.4987 34.262 24.7882V21.824L34.8017 21.8244C35.5896 21.8248 37.5773 22.3914 38.6118 22.9107C39.9756 23.5949 40.84 24.2077 41.8231 25.1872C43.7 27.0574 44.8262 29.3732 45.2358 32.2042L45.3139 32.7439H42.3062C39.6857 32.7439 39.2685 32.7709 39.0662 32.954C38.777 33.2157 38.7665 33.7287 39.0441 34.0354C39.2365 34.248 39.5102 34.2676 42.2841 34.2676H45.3139L45.238 34.8072C45.0738 35.9781 44.6211 37.5545 44.1714 38.5213C42.4747 42.1694 38.8831 44.7395 34.8017 45.226L34.262 45.2903V42.2968C34.262 39.6893 34.2348 39.2732 34.0518 39.071C33.7901 38.7818 33.277 38.7713 32.9703 39.0489C32.7576 39.2412 32.738 39.5147 32.738 42.2867C32.738 43.952 32.7169 45.3145 32.6911 45.3145C32.6654 45.3145 32.1561 45.2294 31.5593 45.1253C27.4422 44.4075 24.0889 41.6893 22.543 37.8166C22.1442 36.8175 21.8162 35.4416 21.8162 34.7676V34.2676H24.7589C27.3189 34.2676 27.7318 34.2403 27.9338 34.0575C28.223 33.7958 28.2335 33.2828 27.9559 32.9761C27.7635 32.7636 27.4906 32.7439 24.7385 32.7439H21.7312L21.8374 31.9681C22.1216 29.8897 23.0542 27.7369 24.3784 26.1017C26.2233 23.8235 29.1057 22.2053 31.9524 21.8495L32.6745 21.7594L32.7087 24.7364C32.7378 27.2831 32.7728 27.7468 32.9506 27.9432ZM20.2207 34.9977C20.4638 37.0932 21.5167 39.8107 22.6939 41.3803C23.3993 42.3209 24.6373 43.5646 25.5601 44.2596C27.1829 45.4818 29.8753 46.5355 32.0078 46.7827L32.738 46.8674V50.4716V54.0758H32.1156C30.3428 54.0758 26.9637 53.1989 24.7632 52.168C18.1649 49.0765 13.5179 42.4251 12.9671 35.2845L12.8887 34.2676H16.5124H20.136L20.2207 34.9977ZM54.0737 34.8899C54.0737 35.2321 53.9626 36.1618 53.8268 36.9559C52.3584 45.5437 45.54 52.3609 36.9508 53.8289C36.1565 53.9647 35.2267 54.0758 34.8844 54.0758H34.262V50.4716V46.8674L34.9922 46.7827C37.1246 46.5355 39.8171 45.4818 41.4399 44.2596C42.3627 43.5646 43.6007 42.3209 44.3061 41.3803C45.4833 39.8107 46.5362 37.0932 46.7793 34.9977L46.864 34.2676H50.4688H54.0737V34.8899Z"/>
</mask>
<path fill-rule="evenodd" clip-rule="evenodd" d="M32.992 1.25395C32.7468 1.49914 32.738 1.67716 32.738 6.3863V11.2648L31.8808 11.3401C26.3824 11.8237 21.6139 14.0203 17.8126 17.8211C14.0111 21.6217 11.8141 26.3894 11.3305 31.8868L11.2552 32.7439H6.37576C1.66579 32.7439 1.48774 32.7527 1.2425 32.9978C0.919166 33.3211 0.919166 33.6904 1.2425 34.0136C1.48774 34.2588 1.66579 34.2676 6.37576 34.2676H11.2552L11.3305 35.1247C11.8141 40.6221 14.0111 45.3898 17.8126 49.1904C21.6139 52.9912 26.3824 55.1878 31.8808 55.6714L32.738 55.7467V60.6252C32.738 65.3343 32.7468 65.5124 32.992 65.7575C33.3153 66.0808 33.6847 66.0808 34.008 65.7575C34.2532 65.5124 34.262 65.3343 34.262 60.6252V55.7467L35.1192 55.6714C40.6123 55.1883 45.3977 52.9852 49.1903 49.1933C52.9829 45.4013 55.1864 40.6168 55.6695 35.1247L55.7448 34.2676H60.6242C65.3342 34.2676 65.5123 34.2588 65.7575 34.0136C66.0808 33.6904 66.0808 33.3211 65.7575 32.9978C65.5123 32.7527 65.3342 32.7439 60.6242 32.7439H55.7448L55.6695 31.8868C55.1859 26.3894 52.9889 21.6217 49.1874 17.8211C45.3861 14.0203 40.6176 11.8237 35.1192 11.3401L34.262 11.2648V6.3863C34.262 1.67716 34.2532 1.49914 34.008 1.25395C33.8683 1.11428 33.6397 1 33.5 1C33.3603 1 33.1317 1.11428 32.992 1.25395ZM32.738 16.5399V20.1441L32.0078 20.2288C29.8753 20.476 27.1829 21.5297 25.5601 22.7519C24.6373 23.4469 23.3993 24.6906 22.6939 25.6312C21.5167 27.2008 20.4638 29.9183 20.2207 32.0138L20.136 32.7439H16.5124H12.8887L12.9671 31.7269C13.2333 28.2763 14.6238 24.4971 16.7044 21.57C17.802 20.0258 20.0176 17.8105 21.5622 16.7131C23.8559 15.0832 27.0532 13.7179 29.6306 13.2675C31.275 12.9801 31.3382 12.972 32.0713 12.953L32.738 12.9357V16.5399ZM37.4063 13.2624C43.7031 14.4399 49.4087 18.8886 52.1655 24.7705C53.1966 26.9706 54.0737 30.3491 54.0737 32.1216V32.7439H50.4688H46.864L46.7793 32.0138C46.532 29.8817 45.4782 27.1897 44.2557 25.5672C43.5607 24.6446 42.3167 23.4069 41.3759 22.7015C39.8061 21.5246 37.0881 20.4718 34.9922 20.2288L34.262 20.1441V16.5211V12.8981L35.2791 12.9765C35.8384 13.0196 36.7957 13.1483 37.4063 13.2624ZM32.9506 27.9432C33.2102 28.23 33.724 28.2393 34.0297 27.9626C34.242 27.7705 34.262 27.4987 34.262 24.7882V21.824L34.8017 21.8244C35.5896 21.8248 37.5773 22.3914 38.6118 22.9107C39.9756 23.5949 40.84 24.2077 41.8231 25.1872C43.7 27.0574 44.8262 29.3732 45.2358 32.2042L45.3139 32.7439H42.3062C39.6857 32.7439 39.2685 32.7709 39.0662 32.954C38.777 33.2157 38.7665 33.7287 39.0441 34.0354C39.2365 34.248 39.5102 34.2676 42.2841 34.2676H45.3139L45.238 34.8072C45.0738 35.9781 44.6211 37.5545 44.1714 38.5213C42.4747 42.1694 38.8831 44.7395 34.8017 45.226L34.262 45.2903V42.2968C34.262 39.6893 34.2348 39.2732 34.0518 39.071C33.7901 38.7818 33.277 38.7713 32.9703 39.0489C32.7576 39.2412 32.738 39.5147 32.738 42.2867C32.738 43.952 32.7169 45.3145 32.6911 45.3145C32.6654 45.3145 32.1561 45.2294 31.5593 45.1253C27.4422 44.4075 24.0889 41.6893 22.543 37.8166C22.1442 36.8175 21.8162 35.4416 21.8162 34.7676V34.2676H24.7589C27.3189 34.2676 27.7318 34.2403 27.9338 34.0575C28.223 33.7958 28.2335 33.2828 27.9559 32.9761C27.7635 32.7636 27.4906 32.7439 24.7385 32.7439H21.7312L21.8374 31.9681C22.1216 29.8897 23.0542 27.7369 24.3784 26.1017C26.2233 23.8235 29.1057 22.2053 31.9524 21.8495L32.6745 21.7594L32.7087 24.7364C32.7378 27.2831 32.7728 27.7468 32.9506 27.9432ZM20.2207 34.9977C20.4638 37.0932 21.5167 39.8107 22.6939 41.3803C23.3993 42.3209 24.6373 43.5646 25.5601 44.2596C27.1829 45.4818 29.8753 46.5355 32.0078 46.7827L32.738 46.8674V50.4716V54.0758H32.1156C30.3428 54.0758 26.9637 53.1989 24.7632 52.168C18.1649 49.0765 13.5179 42.4251 12.9671 35.2845L12.8887 34.2676H16.5124H20.136L20.2207 34.9977ZM54.0737 34.8899C54.0737 35.2321 53.9626 36.1618 53.8268 36.9559C52.3584 45.5437 45.54 52.3609 36.9508 53.8289C36.1565 53.9647 35.2267 54.0758 34.8844 54.0758H34.262V50.4716V46.8674L34.9922 46.7827C37.1246 46.5355 39.8171 45.4818 41.4399 44.2596C42.3627 43.5646 43.6007 42.3209 44.3061 41.3803C45.4833 39.8107 46.5362 37.0932 46.7793 34.9977L46.864 34.2676H50.4688H54.0737V34.8899Z" fill="#77C220"/>
<path fill-rule="evenodd" clip-rule="evenodd" d="M32.992 1.25395C32.7468 1.49914 32.738 1.67716 32.738 6.3863V11.2648L31.8808 11.3401C26.3824 11.8237 21.6139 14.0203 17.8126 17.8211C14.0111 21.6217 11.8141 26.3894 11.3305 31.8868L11.2552 32.7439H6.37576C1.66579 32.7439 1.48774 32.7527 1.2425 32.9978C0.919166 33.3211 0.919166 33.6904 1.2425 34.0136C1.48774 34.2588 1.66579 34.2676 6.37576 34.2676H11.2552L11.3305 35.1247C11.8141 40.6221 14.0111 45.3898 17.8126 49.1904C21.6139 52.9912 26.3824 55.1878 31.8808 55.6714L32.738 55.7467V60.6252C32.738 65.3343 32.7468 65.5124 32.992 65.7575C33.3153 66.0808 33.6847 66.0808 34.008 65.7575C34.2532 65.5124 34.262 65.3343 34.262 60.6252V55.7467L35.1192 55.6714C40.6123 55.1883 45.3977 52.9852 49.1903 49.1933C52.9829 45.4013 55.1864 40.6168 55.6695 35.1247L55.7448 34.2676H60.6242C65.3342 34.2676 65.5123 34.2588 65.7575 34.0136C66.0808 33.6904 66.0808 33.3211 65.7575 32.9978C65.5123 32.7527 65.3342 32.7439 60.6242 32.7439H55.7448L55.6695 31.8868C55.1859 26.3894 52.9889 21.6217 49.1874 17.8211C45.3861 14.0203 40.6176 11.8237 35.1192 11.3401L34.262 11.2648V6.3863C34.262 1.67716 34.2532 1.49914 34.008 1.25395C33.8683 1.11428 33.6397 1 33.5 1C33.3603 1 33.1317 1.11428 32.992 1.25395ZM32.738 16.5399V20.1441L32.0078 20.2288C29.8753 20.476 27.1829 21.5297 25.5601 22.7519C24.6373 23.4469 23.3993 24.6906 22.6939 25.6312C21.5167 27.2008 20.4638 29.9183 20.2207 32.0138L20.136 32.7439H16.5124H12.8887L12.9671 31.7269C13.2333 28.2763 14.6238 24.4971 16.7044 21.57C17.802 20.0258 20.0176 17.8105 21.5622 16.7131C23.8559 15.0832 27.0532 13.7179 29.6306 13.2675C31.275 12.9801 31.3382 12.972 32.0713 12.953L32.738 12.9357V16.5399ZM37.4063 13.2624C43.7031 14.4399 49.4087 18.8886 52.1655 24.7705C53.1966 26.9706 54.0737 30.3491 54.0737 32.1216V32.7439H50.4688H46.864L46.7793 32.0138C46.532 29.8817 45.4782 27.1897 44.2557 25.5672C43.5607 24.6446 42.3167 23.4069 41.3759 22.7015C39.8061 21.5246 37.0881 20.4718 34.9922 20.2288L34.262 20.1441V16.5211V12.8981L35.2791 12.9765C35.8384 13.0196 36.7957 13.1483 37.4063 13.2624ZM32.9506 27.9432C33.2102 28.23 33.724 28.2393 34.0297 27.9626C34.242 27.7705 34.262 27.4987 34.262 24.7882V21.824L34.8017 21.8244C35.5896 21.8248 37.5773 22.3914 38.6118 22.9107C39.9756 23.5949 40.84 24.2077 41.8231 25.1872C43.7 27.0574 44.8262 29.3732 45.2358 32.2042L45.3139 32.7439H42.3062C39.6857 32.7439 39.2685 32.7709 39.0662 32.954C38.777 33.2157 38.7665 33.7287 39.0441 34.0354C39.2365 34.248 39.5102 34.2676 42.2841 34.2676H45.3139L45.238 34.8072C45.0738 35.9781 44.6211 37.5545 44.1714 38.5213C42.4747 42.1694 38.8831 44.7395 34.8017 45.226L34.262 45.2903V42.2968C34.262 39.6893 34.2348 39.2732 34.0518 39.071C33.7901 38.7818 33.277 38.7713 32.9703 39.0489C32.7576 39.2412 32.738 39.5147 32.738 42.2867C32.738 43.952 32.7169 45.3145 32.6911 45.3145C32.6654 45.3145 32.1561 45.2294 31.5593 45.1253C27.4422 44.4075 24.0889 41.6893 22.543 37.8166C22.1442 36.8175 21.8162 35.4416 21.8162 34.7676V34.2676H24.7589C27.3189 34.2676 27.7318 34.2403 27.9338 34.0575C28.223 33.7958 28.2335 33.2828 27.9559 32.9761C27.7635 32.7636 27.4906 32.7439 24.7385 32.7439H21.7312L21.8374 31.9681C22.1216 29.8897 23.0542 27.7369 24.3784 26.1017C26.2233 23.8235 29.1057 22.2053 31.9524 21.8495L32.6745 21.7594L32.7087 24.7364C32.7378 27.2831 32.7728 27.7468 32.9506 27.9432ZM20.2207 34.9977C20.4638 37.0932 21.5167 39.8107 22.6939 41.3803C23.3993 42.3209 24.6373 43.5646 25.5601 44.2596C27.1829 45.4818 29.8753 46.5355 32.0078 46.7827L32.738 46.8674V50.4716V54.0758H32.1156C30.3428 54.0758 26.9637 53.1989 24.7632 52.168C18.1649 49.0765 13.5179 42.4251 12.9671 35.2845L12.8887 34.2676H16.5124H20.136L20.2207 34.9977ZM54.0737 34.8899C54.0737 35.2321 53.9626 36.1618 53.8268 36.9559C52.3584 45.5437 45.54 52.3609 36.9508 53.8289C36.1565 53.9647 35.2267 54.0758 34.8844 54.0758H34.262V50.4716V46.8674L34.9922 46.7827C37.1246 46.5355 39.8171 45.4818 41.4399 44.2596C42.3627 43.5646 43.6007 42.3209 44.3061 41.3803C45.4833 39.8107 46.5362 37.0932 46.7793 34.9977L46.864 34.2676H50.4688H54.0737V34.8899Z" stroke="#77C220" stroke-width="0.6" mask="url(#path-1-outside-1_172_87)"/>
</svg>
