<svg width="45" height="56" viewBox="0 0 45 56" fill="none" xmlns="http://www.w3.org/2000/svg">
<path fill-rule="evenodd" clip-rule="evenodd" d="M11.1758 5.69329C5.27748 8.824 0.34995 11.4829 0.225774 11.602C0.00383817 11.8148 0 11.9635 0 20.4291C0 29.7142 0.0126433 29.9691 0.621105 32.9228C2.43351 41.7203 8.34078 49.4057 16.5385 53.6315C18.0399 54.4054 21.8006 56.0028 22.1144 56C22.4881 55.9966 27.3826 53.8989 28.7725 53.1465C31.639 51.5946 33.7778 50.007 36.0703 47.7295C40.8161 43.0144 43.6968 37.3165 44.7176 30.6257C44.8823 29.5465 44.9159 28.1308 44.9547 20.6543L45 11.9407L44.6823 11.6157C44.2834 11.2075 22.5647 -0.00142182 22.1754 1.35279e-07C22.024 0.000547041 17.0742 2.56247 11.1758 5.69329ZM32.568 7.58941L42.7842 12.8731L42.7798 20.9563C42.7757 28.7891 42.7677 29.0884 42.5216 30.61C41.5427 36.6628 38.9278 41.8501 34.7264 46.0732C31.6471 49.1684 28.7839 51.0285 24.0885 52.9841L22.1003 53.8124L20.4762 53.1191C17.5762 51.8812 15.8354 50.9336 13.9149 49.5472C7.99219 45.2717 3.87813 38.864 2.60894 31.9383C2.17669 29.58 2.14689 28.8622 2.14587 20.7983L2.14486 12.885L12.0789 7.59827C17.5427 4.69048 22.0892 2.31024 22.1823 2.3086C22.2755 2.30707 26.949 4.68337 32.568 7.58941ZM30.8474 22.7846C30.2104 23.2848 27.3363 25.5494 24.4604 27.8168L19.2316 31.9395L16.8578 29.2317C14.0009 25.973 13.9485 25.9224 13.4243 25.9224C12.8774 25.9224 12.5973 26.0903 12.4065 26.5327C12.2678 26.8546 12.2673 26.9564 12.4035 27.2623C12.6132 27.7332 18.2781 34.1378 18.6564 34.3316C18.8654 34.4387 19.0587 34.4546 19.3213 34.3863C19.7094 34.2854 33.1684 23.7502 33.3657 23.3929C33.722 22.7479 33.1715 21.8753 32.4083 21.8753C32.0716 21.8753 31.8153 22.0246 30.8474 22.7846Z" fill="#77C220"/>
</svg>
