<svg width="56" height="56" viewBox="0 0 56 56" fill="none" xmlns="http://www.w3.org/2000/svg">
<path fill-rule="evenodd" clip-rule="evenodd" d="M11.8171 0.158572C9.59775 0.755259 7.42727 3.13796 5.3974 7.20602C4.58516 8.83384 3.8179 10.6493 3.8179 10.9435C3.8179 11.2397 4.30318 11.6916 4.62149 11.6916C5.07821 11.6916 5.32704 11.355 5.9561 9.88641C7.73026 5.74494 9.71844 2.97298 11.6251 1.98277C12.4325 1.56342 13.4696 1.56364 14.3658 1.98331C15.2491 2.39697 16.709 3.87501 17.6402 5.29835C20.7651 10.0747 23.6559 19.2528 24.2887 26.4063C24.8121 32.3249 22.0229 37.6557 17.2484 39.8612C16.3975 40.2543 15.0025 40.6492 14.2676 40.7049L13.8299 40.7382L13.8014 35.8749L13.7729 31.0115L15.6342 29.1395C17.6613 27.1007 17.7588 26.9331 17.2269 26.4014C16.7307 25.9052 16.4878 26.0145 15.1478 27.3363C14.4768 27.9982 13.8935 28.5397 13.8515 28.5397C13.8096 28.5397 13.7752 27.7064 13.7752 26.6878V24.8359L13.4869 24.6092C13.3284 24.4844 13.1337 24.3824 13.0544 24.3824C12.7308 24.3824 12.3568 24.6509 12.2488 24.9608C12.1781 25.1635 12.1339 26.5972 12.1339 28.6867V32.0832L10.8924 30.8585C9.52947 29.514 9.28929 29.4047 8.79164 29.9023C8.26204 30.4318 8.36151 30.6054 10.3285 32.5844L12.1339 34.4009V37.59V40.7791L11.7236 40.7222C6.88082 40.0502 3.04604 36.1553 1.88344 30.7278C1.59227 29.369 1.62006 26.3937 1.94362 24.273C2.3743 21.4506 2.99363 18.6667 3.78146 16.013C3.99582 15.2909 4.16849 14.5529 4.1652 14.3728C4.15393 13.7505 3.29421 13.4186 2.84843 13.8643C2.39017 14.3225 0.99691 19.7625 0.434703 23.2883C-0.390333 28.4628 -0.0187383 31.8081 1.761 35.2294C3.18161 37.9601 5.60661 40.2863 8.20777 41.4133C9.02843 41.7689 10.6763 42.2227 11.7236 42.3817L12.1339 42.4439V48.4014V54.3589H6.32967H0.525304L0.256784 54.6275C-0.0855948 54.9697 -0.0855948 55.3892 0.256784 55.7314L0.525304 56H28H55.4747L55.7432 55.7314C56.0856 55.3892 56.0856 54.9697 55.7432 54.6275L55.4747 54.3589H52.0229H48.5712V48.7247V43.0904H48.8333C48.9774 43.0904 49.4328 42.9862 49.8454 42.859C52.0683 42.1734 53.8014 40.6642 54.9195 38.4407C55.7296 36.8297 55.9349 35.94 55.942 34.0099C55.9483 32.2951 55.818 31.5415 55.2824 30.1968C54.2319 27.5586 52.0729 25.5829 49.5366 24.9389L48.784 24.7478L48.9907 24.483C49.65 23.6388 50.3219 21.9295 50.3219 21.0967C50.3219 20.7752 50.2553 20.6261 50.0336 20.4518C49.4212 19.9701 48.9043 20.314 48.636 21.3817C48.1861 23.1725 46.9564 24.661 45.2406 25.4918C44.7128 25.7475 44.2081 26.0676 44.1193 26.2033C44.0303 26.3389 43.8835 26.7355 43.7929 27.0845C43.4103 28.5579 42.4393 29.8456 41.2924 30.4007C39.6492 31.196 37.4231 30.8202 36.0421 29.5144L35.4406 28.9456V27.1276V25.3098L37.2024 23.5605C38.1714 22.5986 39.028 21.6658 39.106 21.4879C39.3452 20.9421 38.9814 20.3455 38.4048 20.3379C38.212 20.3354 37.7792 20.6921 36.796 21.6638L35.4512 22.9932L35.4185 20.1225L35.3859 17.2519L35.0789 16.988C34.7028 16.6647 34.463 16.6558 34.0877 16.9509L33.7993 17.1776V19.2484C33.7993 20.3873 33.7616 21.3191 33.7155 21.3191C33.6693 21.3191 33.067 20.7529 32.3769 20.0609C31.288 18.9692 31.0748 18.8028 30.7646 18.8028C30.2999 18.8028 29.9696 19.1329 29.9696 19.5972C29.9696 19.9135 30.1868 20.1708 31.8845 21.8661L33.7993 23.7784V26.3179V28.8575L33.2555 29.4013C31.535 31.1215 28.6203 31.2816 26.8774 29.7516C26.1552 29.1176 26.0658 28.865 25.9842 27.2269C25.8899 25.3334 25.6624 23.5438 25.254 21.4832C24.9498 19.9481 24.0525 16.3298 23.6885 15.1694L23.5268 14.6541L24.1433 14.3489C25.0085 13.9207 25.1928 13.5676 25.2737 12.1839C25.3462 10.9438 25.6201 10.2493 26.3076 9.56181C26.7037 9.16588 27.4978 8.71459 28.0189 8.58921C28.4284 8.49075 28.9868 7.99384 29.1638 7.57022C29.2459 7.37374 29.3131 7.00023 29.3131 6.74018C29.3131 6.48013 29.3884 5.97797 29.4806 5.62426C30.1662 2.99234 32.7895 1.25917 35.4085 1.70762C37.8351 2.12324 39.8086 4.33647 39.8199 6.65463C39.8225 7.19902 40.1071 7.92283 40.4312 8.20969C40.545 8.31034 40.9336 8.50223 41.2947 8.63603C43.0136 9.27298 43.8661 10.4515 43.8661 12.1906C43.8661 13.4896 44.1113 13.8846 45.2886 14.4809C46.6179 15.1543 47.7922 16.3399 48.2691 17.49C48.4722 17.9798 48.6921 18.1582 49.1069 18.17C49.4915 18.1809 49.7545 17.9953 49.9013 17.6091C49.9854 17.3882 49.9324 17.1898 49.6226 16.5653C48.8949 15.0983 47.6277 13.8155 46.2232 13.1242L45.5334 12.7847L45.489 11.7694C45.4501 10.8791 45.3962 10.6533 45.0518 9.93728C44.8358 9.48807 44.47 8.90342 44.2389 8.63789C43.7361 8.06035 42.7377 7.3943 42.0146 7.15416L41.4899 6.97988L41.4291 6.19043C41.2276 3.57754 39.2071 1.11126 36.5896 0.283073C35.482 -0.0673461 33.6158 -0.0614383 32.541 0.295874C31.372 0.684584 30.6553 1.14113 29.6936 2.10978C29.0445 2.76358 28.7087 3.21148 28.405 3.82862C27.9889 4.67366 27.6771 5.83946 27.6736 6.56229C27.6718 6.94531 27.6511 6.96544 27.0232 7.19431C25.6769 7.6851 24.4569 8.89762 23.9426 10.2563C23.8028 10.6252 23.6876 11.2429 23.6542 11.801C23.6145 12.4673 23.5498 12.7696 23.426 12.8677C23.1682 13.0715 22.9903 13.0339 22.9076 12.7583C22.3756 10.9811 20.582 6.96314 19.5642 5.2687C17.0981 1.16322 14.4868 -0.559334 11.8171 0.158572ZM49.093 26.5166C51.4215 27.0655 53.3872 29.1439 54.1105 31.8218C54.3799 32.8194 54.3809 34.9987 54.1124 36.0339C53.7517 37.4239 53.1127 38.5557 52.1307 39.5431C51.2068 40.472 50.5672 40.8894 49.5321 41.2384C48.5318 41.5756 48.5712 41.615 48.5712 40.2784V39.1075L49.9301 37.7343C50.7582 36.8976 51.3194 36.2401 51.3669 36.0513C51.4813 35.5954 51.1318 35.1688 50.6074 35.1244C50.2364 35.093 50.1368 35.1547 49.3873 35.8813L48.5712 36.6726V35.2987C48.5712 34.1193 48.5422 33.8889 48.3665 33.6719C48.082 33.3206 47.4191 33.3206 47.1346 33.6719C46.9434 33.9079 46.9299 34.1741 46.9299 37.687C46.9299 41.9553 47.033 41.5965 45.9142 41.2209C43.8489 40.5275 42.1323 38.6157 41.4535 36.2527C41.1963 35.3576 41.0734 33.6625 41.2041 32.8137C41.2951 32.2225 41.2993 32.2173 41.9516 31.8893C43.2411 31.2412 44.6836 29.5015 45.2316 27.9334C45.4709 27.2486 45.4867 27.2317 46.2843 26.8027C47.214 26.3026 47.8922 26.2335 49.093 26.5166ZM27.7956 32.1404C29.3946 32.6865 31.1589 32.5238 32.8419 31.6748L33.7993 31.1918V42.7753V54.3589H23.7873H13.7752V48.4031V42.4474L14.295 42.3785C17.9807 41.8899 21.2703 39.8058 23.4163 36.5995C24.4252 35.0922 25.3632 32.8944 25.647 31.3727L25.7205 30.9783L26.4097 31.4403C26.7887 31.6945 27.4123 32.0096 27.7956 32.1404ZM36.2613 31.6708C37.1041 32.1069 37.565 32.2533 38.5969 32.4125L39.4345 32.5417L39.5082 34.069C39.5961 35.8923 39.8443 36.9461 40.5122 38.3313C41.5868 40.5605 43.4117 42.1669 45.6557 42.859C46.0683 42.9862 46.5237 43.0904 46.6678 43.0904H46.9299V48.7247V54.3589H41.1853H35.4406V42.8078C35.4406 36.4546 35.4775 31.2734 35.5227 31.2938C35.5679 31.3143 35.9002 31.484 36.2613 31.6708Z" fill="#77C220"/>
</svg>
