<svg width="79" height="46" viewBox="0 0 79 46" fill="none" xmlns="http://www.w3.org/2000/svg">
<mask id="path-1-inside-1_172_102" fill="white">
<path fill-rule="evenodd" clip-rule="evenodd" d="M40.435 0.0532415C39.9569 0.247126 39.6633 0.62293 39.6633 1.04099C39.6633 1.29274 40.5287 3.1707 41.7373 5.54169L43.8112 9.61039L43.0107 9.70476C41.4061 9.89395 41.3476 9.87578 40.353 8.8753C38.9603 7.47463 38.5185 7.32331 35.6504 7.26409C33.0729 7.21077 32.6508 7.29984 32.3112 7.96828C32.0893 8.40513 32.306 9.13114 32.7239 9.35062C32.8792 9.43211 33.944 9.49891 35.09 9.49891C37.3798 9.49891 37.8058 9.59616 38.5338 10.2854L39.0251 10.7502L38.1427 11.3878C36.9751 12.2313 36.2091 13.1311 35.56 14.4218C35.0888 15.3585 34.9063 16.0486 34.6256 17.9562C34.5648 18.3688 34.5035 18.4381 34.2905 18.3349C34.1471 18.2654 29.1159 18.1893 23.1101 18.1659C12.908 18.126 12.1904 18.106 12.1895 17.8629C12.186 16.7835 11.1099 15.3202 9.99354 14.8766C8.70802 14.3659 7.07046 14.6411 6.11832 15.528C5.24135 16.3449 5.03036 16.9773 4.96523 18.9832C4.89624 21.112 5.0813 22.1891 5.72074 23.3823C6.16756 24.216 6.17111 24.2428 6.17064 26.8201L6.17018 29.4175L4.92587 29.9924C2.01823 31.3353 0.0122466 34.4057 5.35707e-05 37.5313C-0.0116764 40.5664 1.90402 43.6341 4.66396 45.0003C6.70482 46.0104 6.51004 45.9983 20.8336 46C28.8799 46.0009 34.098 45.9432 34.7244 45.8464C37.7884 45.3726 40.5736 42.9561 41.5265 39.9449C41.8719 38.8532 41.9491 36.6269 41.6736 35.7047C41.5865 35.4136 41.5154 35.158 41.5154 35.1367C41.5154 35.1152 45.3582 35.0978 50.055 35.0978H58.5947L59.7109 36.8341C61.2628 39.2483 62.06 39.8407 63.7429 39.8308L64.594 39.8258L65.788 41.6829C66.4445 42.7042 66.9818 43.5831 66.9818 43.6358C66.9818 43.6885 62.6541 43.7317 57.3646 43.7317C47.8994 43.7317 47.742 43.7365 47.4096 44.0405C46.9641 44.4478 46.9576 45.2496 47.3966 45.6395C47.7085 45.9167 48.1509 45.9297 58.6162 45.9689C67.8204 46.0035 69.7228 45.9739 70.8759 45.7787C72.5049 45.5027 74.1246 44.968 75.2951 44.3197C76.4816 43.6626 78.8137 41.9637 78.9269 41.6741C79.2021 40.9703 78.6612 40.0963 77.9504 40.0963C77.521 40.0963 77.3823 40.1748 75.4485 41.5099C74.8847 41.8992 73.9772 42.4227 73.4318 42.673C72.2307 43.2247 70.1392 43.7021 69.8274 43.496C69.7087 43.4174 68.9154 42.2818 68.0648 40.9725L66.5183 38.5919L66.8657 37.943C67.1411 37.4291 67.2118 37.0533 67.2062 36.1364L67.1991 34.9787L67.8236 34.9093C69.4156 34.7327 71.4596 33.2171 72.1754 31.6827C72.7289 30.4962 72.8892 29.3388 72.8045 27.1455C72.6647 23.5286 72.6835 23.5531 65.4384 17.5465C62.2551 14.9074 59.3661 12.5308 59.0182 12.2653C58.1473 11.6001 56.3793 10.7395 55.0503 10.334L53.9399 9.99514L51.0371 6.75544C44.9443 -0.0440034 45.1437 0.110195 42.3246 0.015222C41.4128 -0.0153755 40.5623 0.00158937 40.435 0.0532415ZM43.7697 2.51739C44.2448 2.729 45.0921 3.57255 47.1523 5.88432C48.6641 7.58082 50.0405 9.12205 50.211 9.30957L50.5211 9.65038H48.4477H46.3742L44.4854 5.93931C42.4621 1.96392 42.4553 1.9315 43.7697 2.51739ZM53.6586 12.2801C54.6625 12.5324 56.7976 13.4121 56.792 13.5711C56.7902 13.6224 56.5185 13.8519 56.1884 14.0811C55.007 14.901 54.4388 16.8661 55.001 18.1866C55.3157 18.926 56.1695 19.8096 56.871 20.1224C57.4166 20.3657 57.9519 20.3987 61.4022 20.4016L65.3145 20.4049L66.8278 21.6546L68.3409 22.9042L56.2787 22.98C46.8817 23.039 44.14 23.0986 43.871 23.2494C43.0901 23.6872 43.2596 24.9084 44.1424 25.2057C44.5408 25.3398 47.9944 25.3887 57.5214 25.395L70.3633 25.4035L70.4639 25.9296C70.657 26.9396 70.4658 29.9801 70.1721 30.5699C69.5386 31.842 68.3388 32.603 66.7015 32.771L65.775 32.866L64.4602 30.8853C62.8933 28.5254 62.3665 28.1064 60.8401 28.0061C59.5396 27.9208 58.6824 28.2512 57.8786 29.1472C57.1399 29.9709 56.8869 30.7744 56.995 31.9547L57.0746 32.8257H48.819H40.5633L39.4548 31.7275C38.7136 30.9932 38.0131 30.4685 37.3403 30.1435C35.3004 29.1587 35.8257 29.1903 21.4957 29.1903H8.48623V27.5999C8.48623 26.7251 8.51216 26.0094 8.54396 26.0094C8.57575 26.0094 8.90574 26.1283 9.27708 26.2736C9.89877 26.5167 10.8926 26.5377 21.7596 26.5387C28.2536 26.5391 33.8202 26.4867 34.13 26.422C34.4399 26.3573 34.9608 26.1195 35.2876 25.8937C35.8413 25.5112 36.0207 25.4776 37.9143 25.4023C40.2638 25.3088 40.5893 25.1615 40.5893 24.1917C40.5893 23.2773 40.2215 23.0763 38.4179 23.0051L36.8851 22.9447L36.8882 20.6524C36.8899 19.3916 36.954 17.9346 37.0307 17.4146C37.454 14.5416 39.5554 12.477 42.5186 12.0223C42.7733 11.9832 45.1694 11.9714 47.8434 11.9959C51.6549 12.0309 52.9111 12.0923 53.6586 12.2801ZM61.004 16.8111L62.5116 18.0571L60.1695 18.0991C57.938 18.1391 57.81 18.1253 57.4655 17.8076C56.9775 17.3576 56.9704 16.4872 57.4512 16.058C57.8965 15.6604 58.1227 15.5836 58.8789 15.5734C59.432 15.5658 59.653 15.6946 61.004 16.8111ZM9.57018 17.3385C9.73795 17.5479 9.87531 17.8931 9.87531 18.1054C9.87531 18.6739 10.4464 19.733 10.9247 20.0515C11.3167 20.3127 12.0099 20.3337 22.5576 20.4049L33.7736 20.4807L34.1718 20.8478C34.5325 21.1806 34.57 21.3242 34.57 22.3741C34.57 23.4241 34.5325 23.5675 34.1717 23.9003L33.7735 24.2675H22.0944C9.22831 24.2675 9.7256 24.3026 8.60924 23.3129C7.58719 22.4066 7.35151 21.7894 7.28021 19.8324C7.20859 17.8687 7.36911 17.2882 8.06272 17.0021C8.66203 16.7547 9.19821 16.8744 9.57018 17.3385ZM61.4652 30.6404C62.2764 31.5539 64.9754 35.9278 64.9754 36.3294C64.9754 36.9736 64.3549 37.5819 63.6979 37.5819C63.3977 37.5819 63.0462 37.4956 62.9168 37.3901C62.6993 37.2131 59.8333 32.8672 59.4385 32.1162C58.7511 30.8078 60.4894 29.542 61.4652 30.6404ZM35.964 32.0221C37.2633 32.6498 38.3454 33.7095 38.9502 34.9463C39.3951 35.8559 39.4318 36.0519 39.4318 37.5213C39.4318 38.9974 39.3961 39.1855 38.9365 40.138C38.0544 41.9654 36.3196 43.2627 34.3306 43.5823C33.1319 43.775 8.86993 43.7792 7.67393 43.587C5.0174 43.1599 2.9324 41.1894 2.45177 38.6513C2.00557 36.295 3.08087 33.8065 5.11186 32.4947C6.77381 31.4214 5.81828 31.48 21.1457 31.5106L34.9627 31.5382L35.964 32.0221ZM7.00193 34.4013C5.27963 35.1883 4.4894 37.2193 5.25756 38.8846C6.37839 41.3145 9.35194 41.8287 11.2227 39.9161C11.8893 39.2348 12.0062 38.6262 11.574 38.0869C11.0823 37.4734 10.4292 37.5242 9.68933 38.2332C9.24343 38.6605 8.97797 38.7937 8.57159 38.7937C7.63797 38.7937 7.0473 37.9162 7.40708 37.0639C7.59013 36.6302 7.88816 36.4407 8.83474 36.1565C10.2487 35.7318 9.8997 34.0353 8.39919 34.039C8.06503 34.0397 7.43625 34.2029 7.00193 34.4013ZM31.869 34.3221C30.557 34.9128 29.7545 36.1344 29.7545 37.5416C29.7545 39.5374 31.2379 41.0244 33.262 41.0574C35.4113 41.0926 37.3971 39.0407 36.2386 37.9816C35.7449 37.5301 35.0972 37.5864 34.5442 38.1292C33.8341 38.8261 33.5571 38.9299 32.9406 38.7302C31.5951 38.2944 31.8479 36.4877 33.2867 36.2586C34.0366 36.1391 34.4157 35.767 34.4157 35.15C34.4157 34.0944 33.2305 33.7091 31.869 34.3221ZM15.2422 36.7261C14.6023 37.4412 14.8346 38.3353 15.7272 38.5922C16.0803 38.6939 18.1135 38.7345 21.3489 38.7045L26.4175 38.6574L26.7123 38.2997C27.0948 37.8361 27.0886 37.1467 26.6986 36.764C26.4015 36.4724 26.1842 36.461 20.9347 36.461C15.9325 36.461 15.4597 36.483 15.2422 36.7261Z"/>
</mask>
<path fill-rule="evenodd" clip-rule="evenodd" d="M40.435 0.0532415C39.9569 0.247126 39.6633 0.62293 39.6633 1.04099C39.6633 1.29274 40.5287 3.1707 41.7373 5.54169L43.8112 9.61039L43.0107 9.70476C41.4061 9.89395 41.3476 9.87578 40.353 8.8753C38.9603 7.47463 38.5185 7.32331 35.6504 7.26409C33.0729 7.21077 32.6508 7.29984 32.3112 7.96828C32.0893 8.40513 32.306 9.13114 32.7239 9.35062C32.8792 9.43211 33.944 9.49891 35.09 9.49891C37.3798 9.49891 37.8058 9.59616 38.5338 10.2854L39.0251 10.7502L38.1427 11.3878C36.9751 12.2313 36.2091 13.1311 35.56 14.4218C35.0888 15.3585 34.9063 16.0486 34.6256 17.9562C34.5648 18.3688 34.5035 18.4381 34.2905 18.3349C34.1471 18.2654 29.1159 18.1893 23.1101 18.1659C12.908 18.126 12.1904 18.106 12.1895 17.8629C12.186 16.7835 11.1099 15.3202 9.99354 14.8766C8.70802 14.3659 7.07046 14.6411 6.11832 15.528C5.24135 16.3449 5.03036 16.9773 4.96523 18.9832C4.89624 21.112 5.0813 22.1891 5.72074 23.3823C6.16756 24.216 6.17111 24.2428 6.17064 26.8201L6.17018 29.4175L4.92587 29.9924C2.01823 31.3353 0.0122466 34.4057 5.35707e-05 37.5313C-0.0116764 40.5664 1.90402 43.6341 4.66396 45.0003C6.70482 46.0104 6.51004 45.9983 20.8336 46C28.8799 46.0009 34.098 45.9432 34.7244 45.8464C37.7884 45.3726 40.5736 42.9561 41.5265 39.9449C41.8719 38.8532 41.9491 36.6269 41.6736 35.7047C41.5865 35.4136 41.5154 35.158 41.5154 35.1367C41.5154 35.1152 45.3582 35.0978 50.055 35.0978H58.5947L59.7109 36.8341C61.2628 39.2483 62.06 39.8407 63.7429 39.8308L64.594 39.8258L65.788 41.6829C66.4445 42.7042 66.9818 43.5831 66.9818 43.6358C66.9818 43.6885 62.6541 43.7317 57.3646 43.7317C47.8994 43.7317 47.742 43.7365 47.4096 44.0405C46.9641 44.4478 46.9576 45.2496 47.3966 45.6395C47.7085 45.9167 48.1509 45.9297 58.6162 45.9689C67.8204 46.0035 69.7228 45.9739 70.8759 45.7787C72.5049 45.5027 74.1246 44.968 75.2951 44.3197C76.4816 43.6626 78.8137 41.9637 78.9269 41.6741C79.2021 40.9703 78.6612 40.0963 77.9504 40.0963C77.521 40.0963 77.3823 40.1748 75.4485 41.5099C74.8847 41.8992 73.9772 42.4227 73.4318 42.673C72.2307 43.2247 70.1392 43.7021 69.8274 43.496C69.7087 43.4174 68.9154 42.2818 68.0648 40.9725L66.5183 38.5919L66.8657 37.943C67.1411 37.4291 67.2118 37.0533 67.2062 36.1364L67.1991 34.9787L67.8236 34.9093C69.4156 34.7327 71.4596 33.2171 72.1754 31.6827C72.7289 30.4962 72.8892 29.3388 72.8045 27.1455C72.6647 23.5286 72.6835 23.5531 65.4384 17.5465C62.2551 14.9074 59.3661 12.5308 59.0182 12.2653C58.1473 11.6001 56.3793 10.7395 55.0503 10.334L53.9399 9.99514L51.0371 6.75544C44.9443 -0.0440034 45.1437 0.110195 42.3246 0.015222C41.4128 -0.0153755 40.5623 0.00158937 40.435 0.0532415ZM43.7697 2.51739C44.2448 2.729 45.0921 3.57255 47.1523 5.88432C48.6641 7.58082 50.0405 9.12205 50.211 9.30957L50.5211 9.65038H48.4477H46.3742L44.4854 5.93931C42.4621 1.96392 42.4553 1.9315 43.7697 2.51739ZM53.6586 12.2801C54.6625 12.5324 56.7976 13.4121 56.792 13.5711C56.7902 13.6224 56.5185 13.8519 56.1884 14.0811C55.007 14.901 54.4388 16.8661 55.001 18.1866C55.3157 18.926 56.1695 19.8096 56.871 20.1224C57.4166 20.3657 57.9519 20.3987 61.4022 20.4016L65.3145 20.4049L66.8278 21.6546L68.3409 22.9042L56.2787 22.98C46.8817 23.039 44.14 23.0986 43.871 23.2494C43.0901 23.6872 43.2596 24.9084 44.1424 25.2057C44.5408 25.3398 47.9944 25.3887 57.5214 25.395L70.3633 25.4035L70.4639 25.9296C70.657 26.9396 70.4658 29.9801 70.1721 30.5699C69.5386 31.842 68.3388 32.603 66.7015 32.771L65.775 32.866L64.4602 30.8853C62.8933 28.5254 62.3665 28.1064 60.8401 28.0061C59.5396 27.9208 58.6824 28.2512 57.8786 29.1472C57.1399 29.9709 56.8869 30.7744 56.995 31.9547L57.0746 32.8257H48.819H40.5633L39.4548 31.7275C38.7136 30.9932 38.0131 30.4685 37.3403 30.1435C35.3004 29.1587 35.8257 29.1903 21.4957 29.1903H8.48623V27.5999C8.48623 26.7251 8.51216 26.0094 8.54396 26.0094C8.57575 26.0094 8.90574 26.1283 9.27708 26.2736C9.89877 26.5167 10.8926 26.5377 21.7596 26.5387C28.2536 26.5391 33.8202 26.4867 34.13 26.422C34.4399 26.3573 34.9608 26.1195 35.2876 25.8937C35.8413 25.5112 36.0207 25.4776 37.9143 25.4023C40.2638 25.3088 40.5893 25.1615 40.5893 24.1917C40.5893 23.2773 40.2215 23.0763 38.4179 23.0051L36.8851 22.9447L36.8882 20.6524C36.8899 19.3916 36.954 17.9346 37.0307 17.4146C37.454 14.5416 39.5554 12.477 42.5186 12.0223C42.7733 11.9832 45.1694 11.9714 47.8434 11.9959C51.6549 12.0309 52.9111 12.0923 53.6586 12.2801ZM61.004 16.8111L62.5116 18.0571L60.1695 18.0991C57.938 18.1391 57.81 18.1253 57.4655 17.8076C56.9775 17.3576 56.9704 16.4872 57.4512 16.058C57.8965 15.6604 58.1227 15.5836 58.8789 15.5734C59.432 15.5658 59.653 15.6946 61.004 16.8111ZM9.57018 17.3385C9.73795 17.5479 9.87531 17.8931 9.87531 18.1054C9.87531 18.6739 10.4464 19.733 10.9247 20.0515C11.3167 20.3127 12.0099 20.3337 22.5576 20.4049L33.7736 20.4807L34.1718 20.8478C34.5325 21.1806 34.57 21.3242 34.57 22.3741C34.57 23.4241 34.5325 23.5675 34.1717 23.9003L33.7735 24.2675H22.0944C9.22831 24.2675 9.7256 24.3026 8.60924 23.3129C7.58719 22.4066 7.35151 21.7894 7.28021 19.8324C7.20859 17.8687 7.36911 17.2882 8.06272 17.0021C8.66203 16.7547 9.19821 16.8744 9.57018 17.3385ZM61.4652 30.6404C62.2764 31.5539 64.9754 35.9278 64.9754 36.3294C64.9754 36.9736 64.3549 37.5819 63.6979 37.5819C63.3977 37.5819 63.0462 37.4956 62.9168 37.3901C62.6993 37.2131 59.8333 32.8672 59.4385 32.1162C58.7511 30.8078 60.4894 29.542 61.4652 30.6404ZM35.964 32.0221C37.2633 32.6498 38.3454 33.7095 38.9502 34.9463C39.3951 35.8559 39.4318 36.0519 39.4318 37.5213C39.4318 38.9974 39.3961 39.1855 38.9365 40.138C38.0544 41.9654 36.3196 43.2627 34.3306 43.5823C33.1319 43.775 8.86993 43.7792 7.67393 43.587C5.0174 43.1599 2.9324 41.1894 2.45177 38.6513C2.00557 36.295 3.08087 33.8065 5.11186 32.4947C6.77381 31.4214 5.81828 31.48 21.1457 31.5106L34.9627 31.5382L35.964 32.0221ZM7.00193 34.4013C5.27963 35.1883 4.4894 37.2193 5.25756 38.8846C6.37839 41.3145 9.35194 41.8287 11.2227 39.9161C11.8893 39.2348 12.0062 38.6262 11.574 38.0869C11.0823 37.4734 10.4292 37.5242 9.68933 38.2332C9.24343 38.6605 8.97797 38.7937 8.57159 38.7937C7.63797 38.7937 7.0473 37.9162 7.40708 37.0639C7.59013 36.6302 7.88816 36.4407 8.83474 36.1565C10.2487 35.7318 9.8997 34.0353 8.39919 34.039C8.06503 34.0397 7.43625 34.2029 7.00193 34.4013ZM31.869 34.3221C30.557 34.9128 29.7545 36.1344 29.7545 37.5416C29.7545 39.5374 31.2379 41.0244 33.262 41.0574C35.4113 41.0926 37.3971 39.0407 36.2386 37.9816C35.7449 37.5301 35.0972 37.5864 34.5442 38.1292C33.8341 38.8261 33.5571 38.9299 32.9406 38.7302C31.5951 38.2944 31.8479 36.4877 33.2867 36.2586C34.0366 36.1391 34.4157 35.767 34.4157 35.15C34.4157 34.0944 33.2305 33.7091 31.869 34.3221ZM15.2422 36.7261C14.6023 37.4412 14.8346 38.3353 15.7272 38.5922C16.0803 38.6939 18.1135 38.7345 21.3489 38.7045L26.4175 38.6574L26.7123 38.2997C27.0948 37.8361 27.0886 37.1467 26.6986 36.764C26.4015 36.4724 26.1842 36.461 20.9347 36.461C15.9325 36.461 15.4597 36.483 15.2422 36.7261Z" fill="#77C220" stroke="white" stroke-width="0.8" mask="url(#path-1-inside-1_172_102)"/>
</svg>
